<?xml version="1.0" encoding="utf-8"?>
<!-- Generator: Adobe Illustrator 24.0.0, SVG Export Plug-In . SVG Version: 6.00 Build 0)  -->
<svg version="1.1" id="レイヤー_1" xmlns="http://www.w3.org/2000/svg" xmlns:xlink="http://www.w3.org/1999/xlink" x="0px"
	 y="0px" viewBox="0 0 800 800" style="enable-background:new 0 0 800 800;" xml:space="preserve">
<style type="text/css">
	.st0{fill:none;stroke:#E60012;stroke-width:2.4073;stroke-linecap:round;stroke-linejoin:round;}
</style>
<path class="st0" d="M386.49,201.52c0,0,21.71-103.42,112.35-131.51s234.92,15.32,246.41,173.64
	C756.75,401.97,571.67,542.42,524.38,582S428.62,696.9,420.96,716.06c-7.66,19.15-5.11,10.21-5.11,10.21s-131.51-143-222.16-247.69
	S71.13,279.41,115.82,200.25s195.34-155.76,276.92,26.65c0,0,7.3-7.46,9-11.83c12.68-32.74,34.55-170.58,247.77-133.56
	c195.4,33.93,29.75,333.2-15.32,371.54c-45.07,38.34-222.16,209.39-229.82,278.33c0,0-124.7-142.46-197.9-214.5
	S21.34,322.82,66.03,210.46s236.5-121.48,328.43,21.52c0,0-38.6-105.79,35.45-151.75s208.11-7.66,273.23,93.2
	s-29.37,181.3-84.27,291.1c-54.9,109.8-188.96,214.5-196.62,274.5c0,0-122.57-168.53-183.85-215.77S20.06,311.32,60.92,184.92
	c15.4-47.64,157.74-149.22,275.78-49.79c43.34,36.51,53.62,60.01,53.62,60.01"/>
</svg>
