<svg
  version="1.1"
  xmlns="http://www.w3.org/2000/svg"
  xmlns:xlink="http://www.w3.org/1999/xlink"
  viewBox="0 0 800 700"
  xml:space="preserve"
>
<g>
<path
    ref="mask_path"
    class="mask_path"
    d="M431.168,195.248s24.629-98.77,127.457-125.6S825.135,84.283,838.169,235.484,641.249,520.82,587.6,558.62,478.963,668.354,470.273,686.652s-5.8,9.751-5.8,9.751S315.283,559.833,212.443,459.85,27.851,304.059,79.685,173.376s266.024-128.1,358.574,46.111c0,0,12.513-36.963,14.442-41.137,14.385-31.268,34.964-133.071,276.855-97.716,217.179,80.986,33.75,318.218-17.38,354.834S460.143,635.443,451.453,701.283c0,0-141.468-136.054-224.511-204.855S56.363,266.653,107.063,159.346,335.919,87.768,440.21,224.339c0,0-19.413-107.658,62.7-143.7S745.467,66.3,795.489,166.34s-31.881,188.647-94.163,293.51-220.9,191.437-229.589,248.739c0,0-139.052-160.952-208.572-206.068S-2.852,388.765,67.617,151.6C84.984,94.927,240.771,36.884,374.683,131.843c49.168,34.868,60.83,57.312,60.83,57.312"
    transform="translate(-46.726 -35.536)"
    fill="hsla(0, 0%, 100%, 0.5)" stroke="hsla(0, 50%, 50%, 1)" stroke-linecap="round" stroke-linejoin="round" stroke-width="12.407"
/>
</g>
</svg>
