<svg xmlns="http://www.w3.org/2000/svg" xmlns:xlink="http://www.w3.org/1999/xlink" width="840" height="700" viewBox="0 0 840 700"><defs><clipPath id="b"><rect width="840" height="700"/></clipPath></defs><g id="a" clip-path="url(#b)"><rect width="840" height="700" fill="#fff"/><path d="M448.915,201.52S474.7,98.1,582.374,70.01,861.43,85.33,875.079,243.65,668.887,542.42,612.712,582,498.961,696.9,489.862,716.06s-6.07,10.21-6.07,10.21-156.218-143-263.9-247.69S43.854,262.443,78.062,183.826,359.432,44.49,456.34,226.9c0,0,13.1-38.7,15.122-43.074,15.062-32.74,36.61-139.336,289.89-102.316,227.4,84.8,35.339,333.2-18.2,371.54s-263.9,209.39-273,278.33c0,0-148.129-142.46-235.081-214.5S15.161,322.82,68.248,210.46,349.181,88.98,458.383,231.98c0,0-20.327-112.727,65.65-150.47S778.012,66.5,830.389,171.251s-33.382,197.529-98.6,307.329-231.3,200.45-240.4,260.45c0,0-145.6-168.53-218.392-215.77S13.641,311.32,62.178,184.92C80.471,137.28,249.554,35.7,389.771,135.13c51.483,36.51,63.694,60.01,63.694,60.01" transform="translate(-44.726 -50.536)" fill="none" stroke="#e60012" stroke-linecap="round" stroke-linejoin="round" stroke-width="2.407"/></g></svg>