<?xml version="1.0" standalone="no"?>
<!DOCTYPE svg PUBLIC "-//W3C//DTD SVG 20010904//EN"
 "http://www.w3.org/TR/2001/REC-SVG-20010904/DTD/svg10.dtd">
<svg version="1.0" xmlns="http://www.w3.org/2000/svg"
 width="320.000000pt" height="320.000000pt" viewBox="0 0 320.000000 320.000000"
 preserveAspectRatio="xMidYMid meet">
<metadata>
Created by potrace 1.11, written by Peter Selinger 2001-2013
</metadata>
<g transform="translate(0.000000,320.000000) scale(0.100000,-0.100000)"
fill="#000000" stroke="none">
<path d="M0 1600 l0 -1600 1600 0 1600 0 0 1600 0 1600 -1600 0 -1600 0 0
-1600z m2570 503 l0 -227 38 36 c94 92 261 107 345 30 49 -44 52 -62 57 -345
5 -251 6 -270 24 -283 11 -8 33 -14 49 -14 24 0 28 -4 25 -22 -3 -23 -4 -23
-188 -23 -184 0 -185 0 -188 22 -3 18 1 23 19 23 12 0 31 7 41 17 16 15 18 36
18 255 0 267 -4 288 -62 307 -59 20 -130 -15 -164 -81 -11 -21 -14 -73 -13
-225 2 -244 3 -255 49 -269 23 -8 35 -18 35 -30 0 -18 -12 -19 -187 -22 l-188
-2 0 24 c0 20 6 24 39 30 22 3 41 13 45 22 3 8 6 215 6 459 0 483 3 455 -56
455 -39 0 -32 38 9 45 17 3 77 14 132 24 55 11 103 19 108 20 4 1 7 -101 7
-226z m-1925 160 c102 -53 160 -161 153 -281 -8 -143 -79 -231 -315 -395 -78
-54 -147 -105 -154 -113 -10 -12 15 -14 175 -14 216 0 248 7 271 65 16 37 21
40 44 26 14 -9 13 -20 -30 -203 l-21 -88 -309 0 -309 0 0 61 0 61 170 167
c155 152 172 173 207 246 36 75 38 86 38 175 0 111 -23 173 -76 204 -88 52
-216 -2 -275 -115 -16 -31 -41 -38 -50 -14 -9 23 46 113 99 160 73 66 132 86
247 82 73 -2 104 -8 135 -24z m915 -10 c0 -10 -7 -53 -15 -96 -8 -43 -15 -81
-15 -83 0 -2 -103 -4 -230 -4 l-230 0 0 -49 c0 -27 -3 -61 -6 -77 l-6 -29 130
3 c200 5 322 -33 398 -122 101 -117 79 -323 -45 -439 -94 -88 -193 -121 -350
-115 -92 3 -114 7 -164 32 -67 33 -92 64 -92 119 0 53 39 87 99 87 53 0 89
-34 106 -100 6 -25 18 -55 26 -67 18 -28 69 -38 123 -23 154 41 215 273 100
382 -52 50 -117 63 -274 55 l-120 -6 21 272 c12 150 22 273 23 275 0 1 118 2
261 2 241 0 260 -1 260 -17z m470 -158 l0 -114 93 -3 c84 -3 92 -5 92 -23 0
-18 -8 -20 -92 -23 l-93 -3 0 -274 c0 -262 1 -276 20 -295 27 -27 79 -26 123
4 34 23 36 24 52 6 15 -16 13 -20 -30 -58 -56 -50 -119 -72 -200 -72 -73 0
-120 25 -147 80 -16 31 -18 69 -18 323 l0 287 -51 0 c-47 0 -50 2 -47 23 2 18
11 23 46 28 78 10 133 72 154 170 l12 59 43 0 43 0 0 -115z"/>
</g>
</svg>
